<svg width="24" height="26" viewBox="0 0 24 26" fill="none" xmlns="http://www.w3.org/2000/svg">
<g clip-path="url(#clip0_290_18981)">
<g filter="url(#filter0_d_290_18981)">
<path fill-rule="evenodd" clip-rule="evenodd" d="M18.6578 7.86097L17.764 8.55322L16.3243 9.66824C16.1305 8.69905 15.5695 7.86591 14.7936 7.32416L17.5652 5.17762L16.7069 4.03852C16.3561 3.57275 16.444 2.90664 16.9034 2.55078L18.9928 5.32213C19.3022 5.73266 19.4102 6.23421 19.3358 6.70705C19.2662 7.14964 19.0369 7.56736 18.6578 7.86097Z" fill="black"/>
<path fill-rule="evenodd" clip-rule="evenodd" d="M9.87263 17.5512C12.964 15.9307 15.7169 15.4725 16.4113 16.5854C16.9816 17.4994 16.0113 19.2327 14.112 21.0078L15.9149 23.9401H17.1429C17.7077 23.9558 18.1611 24.4237 18.1611 24.9999H16.5665H14.4524L13.8009 23.9401L12.756 22.2407L12.3477 21.5769C12.4917 21.3377 12.5754 21.0574 12.5754 20.7568C12.5754 19.886 11.8791 19.1799 11.0201 19.1799C10.9724 19.1799 10.9258 19.1845 10.8793 19.1886L9.87263 17.5512Z" fill="black"/>
<path fill-rule="evenodd" clip-rule="evenodd" d="M1.22649 7.45286C1.3879 6.66512 2.07605 6.07295 2.90097 6.07295C3.13645 6.07295 3.36073 6.12138 3.56467 6.2085C4.17959 6.4714 4.61146 7.08802 4.61146 7.8072V16.0312C4.61146 16.6171 5.07999 17.0924 5.65824 17.0924C6.07919 17.0924 6.44127 16.8398 6.60743 16.4765C6.62217 16.4442 6.63542 16.4109 6.64699 16.377L7.61895 13.9347L5.73232 7.48086C5.73101 7.47672 5.72924 7.47237 5.72793 7.46799C5.70498 7.39572 5.68483 7.32346 5.66514 7.251C4.97802 4.72209 6.21456 2.08213 8.52671 1L12.9704 2.56644C13.5159 2.75534 13.8075 3.35564 13.624 3.909L12.4987 3.50103C12.0539 3.33973 11.5644 3.5746 11.4054 4.02542C11.2463 4.47625 11.4779 4.97266 11.9227 5.13387L13.0838 5.55478C12.881 6.09868 12.2837 6.37678 11.7442 6.17599L10.518 5.71937C10.431 6.21959 10.7083 6.72535 11.1959 6.90196L13.5449 7.76861C14.5359 8.19805 15.2388 9.17575 15.2875 10.3252C15.2893 10.3674 15.2922 10.4094 15.2922 10.452C15.2922 10.4781 15.2896 10.5037 15.2888 10.5296C15.2935 10.5176 15.2965 10.5097 15.2965 10.5097H18.963V9.07624C18.963 8.67565 19.4516 8.32726 19.7612 8.14659L20.0098 8.01492V11.5279C19.9965 12.5167 19.2029 13.3144 18.2245 13.3144H14.0888C13.7226 13.3144 13.3665 13.3586 13.0254 13.4415C13.0421 13.4374 13.0585 13.4313 13.0751 13.4265C13.0572 13.4318 13.0393 13.4371 13.0212 13.4415C13.0105 13.4441 12.9998 13.4469 12.9891 13.4497C11.1459 13.9121 9.74609 15.5143 9.55969 17.4766C9.55652 17.5108 9.55446 17.5454 9.55194 17.58C9.54364 17.6937 9.53814 17.808 9.53814 17.9238C9.53814 19.0284 9.92168 20.0421 10.5608 20.8361C10.6076 20.8943 10.6558 20.9515 10.7054 21.0073C10.8359 21.1959 10.9132 21.4252 10.9132 21.6732C10.9132 22.3151 10.3998 22.8356 9.76662 22.8356C9.53879 22.8356 9.32663 22.7682 9.14825 22.6523L6.82677 21.2631C6.50648 21.4447 6.28985 21.7913 6.28985 22.1897C6.28985 22.453 6.38445 22.6942 6.54119 22.8796L7.50457 23.9402H8.67972H8.73719C9.30182 23.9559 9.75524 24.4237 9.75524 25H7.66205H6.39789C6.39789 23.9996 5.59806 23.1888 4.61146 23.1888V20.0992C5.43013 19.9339 6.04728 19.2019 6.04728 18.3233C6.04728 18.2793 6.04523 18.2356 6.04215 18.1921C5.93747 18.2079 5.83149 18.2189 5.72242 18.2189C5.31547 18.2189 4.93631 18.1026 4.61146 17.9039C3.98488 17.521 3.56467 16.8267 3.56467 16.0312V7.8072C3.56467 7.42401 3.25829 7.11349 2.88044 7.11349C2.51594 7.11349 2.21879 7.40272 2.19826 7.7673C2.66829 8.09353 2.97691 8.64114 2.97691 9.2623C2.97691 10.2626 2.17718 11.0735 1.19048 11.0735V7.8072C1.19048 7.68574 1.20298 7.56741 1.22649 7.45286Z" fill="black"/>
</g>
</g>
<defs>
<filter id="filter0_d_290_18981" x="-2.80957" y="-1" width="26.8193" height="32" filterUnits="userSpaceOnUse" color-interpolation-filters="sRGB">
<feFlood flood-opacity="0" result="BackgroundImageFix"/>
<feColorMatrix in="SourceAlpha" type="matrix" values="0 0 0 0 0 0 0 0 0 0 0 0 0 0 0 0 0 0 127 0" result="hardAlpha"/>
<feOffset dy="2"/>
<feGaussianBlur stdDeviation="2"/>
<feColorMatrix type="matrix" values="0 0 0 0 0 0 0 0 0 0 0 0 0 0 0 0 0 0 0.05 0"/>
<feBlend mode="normal" in2="BackgroundImageFix" result="effect1_dropShadow_290_18981"/>
<feBlend mode="normal" in="SourceGraphic" in2="effect1_dropShadow_290_18981" result="shape"/>
</filter>
<clipPath id="clip0_290_18981">
<rect width="24" height="26" fill="white"/>
</clipPath>
</defs>
</svg>
