<svg width="164" height="26" viewBox="0 0 164 26" fill="none" xmlns="http://www.w3.org/2000/svg">
<g clip-path="url(#clip0_290_18981)">
<g filter="url(#filter0_d_290_18981)">
<path fill-rule="evenodd" clip-rule="evenodd" d="M18.6578 7.86097L17.764 8.55322L16.3243 9.66824C16.1305 8.69905 15.5695 7.86591 14.7936 7.32416L17.5652 5.17762L16.7069 4.03852C16.3561 3.57275 16.444 2.90664 16.9034 2.55078L18.9928 5.32213C19.3022 5.73266 19.4102 6.23421 19.3358 6.70705C19.2662 7.14964 19.0369 7.56736 18.6578 7.86097Z" fill="black"/>
<path fill-rule="evenodd" clip-rule="evenodd" d="M9.87263 17.5512C12.964 15.9307 15.7169 15.4725 16.4113 16.5854C16.9816 17.4994 16.0113 19.2327 14.112 21.0078L15.9149 23.9401H17.1429C17.7077 23.9558 18.1611 24.4237 18.1611 24.9999H16.5665H14.4524L13.8009 23.9401L12.756 22.2407L12.3477 21.5769C12.4917 21.3377 12.5754 21.0574 12.5754 20.7568C12.5754 19.886 11.8791 19.1799 11.0201 19.1799C10.9724 19.1799 10.9258 19.1845 10.8793 19.1886L9.87263 17.5512Z" fill="black"/>
<path fill-rule="evenodd" clip-rule="evenodd" d="M1.22649 7.45286C1.3879 6.66512 2.07605 6.07295 2.90097 6.07295C3.13645 6.07295 3.36073 6.12138 3.56467 6.2085C4.17959 6.4714 4.61146 7.08802 4.61146 7.8072V16.0312C4.61146 16.6171 5.07999 17.0924 5.65824 17.0924C6.07919 17.0924 6.44127 16.8398 6.60743 16.4765C6.62217 16.4442 6.63542 16.4109 6.64699 16.377L7.61895 13.9347L5.73232 7.48086C5.73101 7.47672 5.72924 7.47237 5.72793 7.46799C5.70498 7.39572 5.68483 7.32346 5.66514 7.251C4.97802 4.72209 6.21456 2.08213 8.52671 1L12.9704 2.56644C13.5159 2.75534 13.8075 3.35564 13.624 3.909L12.4987 3.50103C12.0539 3.33973 11.5644 3.5746 11.4054 4.02542C11.2463 4.47625 11.4779 4.97266 11.9227 5.13387L13.0838 5.55478C12.881 6.09868 12.2837 6.37678 11.7442 6.17599L10.518 5.71937C10.431 6.21959 10.7083 6.72535 11.1959 6.90196L13.5449 7.76861C14.5359 8.19805 15.2388 9.17575 15.2875 10.3252C15.2893 10.3674 15.2922 10.4094 15.2922 10.452C15.2922 10.4781 15.2896 10.5037 15.2888 10.5296C15.2935 10.5176 15.2965 10.5097 15.2965 10.5097H18.963V9.07624C18.963 8.67565 19.4516 8.32726 19.7612 8.14659L20.0098 8.01492V11.5279C19.9965 12.5167 19.2029 13.3144 18.2245 13.3144H14.0888C13.7226 13.3144 13.3665 13.3586 13.0254 13.4415C13.0421 13.4374 13.0585 13.4313 13.0751 13.4265C13.0572 13.4318 13.0393 13.4371 13.0212 13.4415C13.0105 13.4441 12.9998 13.4469 12.9891 13.4497C11.1459 13.9121 9.74609 15.5143 9.55969 17.4766C9.55652 17.5108 9.55446 17.5454 9.55194 17.58C9.54364 17.6937 9.53814 17.808 9.53814 17.9238C9.53814 19.0284 9.92168 20.0421 10.5608 20.8361C10.6076 20.8943 10.6558 20.9515 10.7054 21.0073C10.8359 21.1959 10.9132 21.4252 10.9132 21.6732C10.9132 22.3151 10.3998 22.8356 9.76662 22.8356C9.53879 22.8356 9.32663 22.7682 9.14825 22.6523L6.82677 21.2631C6.50648 21.4447 6.28985 21.7913 6.28985 22.1897C6.28985 22.453 6.38445 22.6942 6.54119 22.8796L7.50457 23.9402H8.67972H8.73719C9.30182 23.9559 9.75524 24.4237 9.75524 25H7.66205H6.39789C6.39789 23.9996 5.59806 23.1888 4.61146 23.1888V20.0992C5.43013 19.9339 6.04728 19.2019 6.04728 18.3233C6.04728 18.2793 6.04523 18.2356 6.04215 18.1921C5.93747 18.2079 5.83149 18.2189 5.72242 18.2189C5.31547 18.2189 4.93631 18.1026 4.61146 17.9039C3.98488 17.521 3.56467 16.8267 3.56467 16.0312V7.8072C3.56467 7.42401 3.25829 7.11349 2.88044 7.11349C2.51594 7.11349 2.21879 7.40272 2.19826 7.7673C2.66829 8.09353 2.97691 8.64114 2.97691 9.2623C2.97691 10.2626 2.17718 11.0735 1.19048 11.0735V7.8072C1.19048 7.68574 1.20298 7.56741 1.22649 7.45286Z" fill="black"/>
</g>
</g>
<path d="M158.614 20.0008V14.5258L158.884 15.3808L154.564 9.42578H156.004L159.409 14.1358H159.094L162.499 9.42578H163.894L159.589 15.3808L159.844 14.5258V20.0008H158.614Z" fill="#555454"/>
<path d="M143.263 20.0008V9.42578H144.298L148.588 17.4808H148.138L152.398 9.42578H153.433V20.0008H152.293V11.0758H152.653L148.768 18.3658H147.958L144.028 11.0608H144.388V20.0008H143.263Z" fill="#555454"/>
<path d="M134.487 20.0008V9.42578H141.162V10.4608H135.687V14.1208H140.847V15.1558H135.687V18.9658H141.162V20.0008H134.487Z" fill="#555454"/>
<path d="M123.354 20.0008V9.42578H126.924C128.074 9.42578 129.044 9.63078 129.834 10.0408C130.634 10.4408 131.239 11.0358 131.649 11.8258C132.069 12.6058 132.279 13.5658 132.279 14.7058C132.279 15.8458 132.069 16.8108 131.649 17.6008C131.239 18.3908 130.634 18.9908 129.834 19.4008C129.044 19.8008 128.074 20.0008 126.924 20.0008H123.354ZM124.584 18.9508H126.834C128.224 18.9508 129.259 18.5958 129.939 17.8858C130.629 17.1758 130.974 16.1158 130.974 14.7058C130.974 13.2958 130.629 12.2408 129.939 11.5408C129.249 10.8308 128.214 10.4758 126.834 10.4758H124.584V18.9508Z" fill="#555454"/>
<path d="M111.393 20.0008L116.058 9.42578H117.108L121.773 20.0008H120.498L119.193 16.9858L119.793 17.3008H113.343L113.958 16.9858L112.668 20.0008H111.393ZM116.568 10.8658L114.153 16.5508L113.793 16.2658H119.343L119.013 16.5508L116.598 10.8658H116.568Z" fill="#555454"/>
<path d="M107.158 20.1341C106.118 20.1341 105.228 19.9141 104.488 19.4741C103.748 19.0341 103.178 18.4091 102.778 17.5991C102.388 16.7891 102.193 15.8241 102.193 14.7041C102.193 13.5841 102.388 12.6241 102.778 11.8241C103.178 11.0141 103.748 10.3891 104.488 9.94906C105.228 9.50906 106.118 9.28906 107.158 9.28906C107.888 9.28906 108.563 9.40406 109.183 9.63406C109.803 9.86406 110.323 10.1991 110.743 10.6391L110.263 11.6441C109.803 11.2141 109.323 10.9041 108.823 10.7141C108.333 10.5141 107.788 10.4141 107.188 10.4141C105.998 10.4141 105.088 10.7891 104.458 11.5391C103.828 12.2891 103.513 13.3441 103.513 14.7041C103.513 16.0641 103.828 17.1241 104.458 17.8841C105.088 18.6341 105.998 19.0091 107.188 19.0091C107.788 19.0091 108.333 18.9141 108.823 18.7241C109.323 18.5241 109.803 18.2091 110.263 17.7791L110.743 18.7841C110.323 19.2141 109.803 19.5491 109.183 19.7891C108.563 20.0191 107.888 20.1341 107.158 20.1341Z" fill="#555454"/>
<path d="M90.7969 20.0008L95.4619 9.42578H96.5119L101.177 20.0008H99.9019L98.5969 16.9858L99.1969 17.3008H92.7469L93.3619 16.9858L92.0719 20.0008H90.7969ZM95.9719 10.8658L93.5569 16.5508L93.1969 16.2658H98.7469L98.4169 16.5508L96.0019 10.8658H95.9719Z" fill="#555454"/>
<path d="M81.3838 20.0008V9.42578H85.9738C87.1338 9.42578 88.0288 9.70578 88.6588 10.2658C89.2888 10.8158 89.6038 11.5908 89.6038 12.5908C89.6038 13.2408 89.4588 13.8008 89.1688 14.2708C88.8888 14.7408 88.4788 15.1008 87.9388 15.3508C87.3988 15.6008 86.7438 15.7258 85.9738 15.7258L86.1088 15.5008H86.6038C87.0138 15.5008 87.3688 15.6008 87.6688 15.8008C87.9788 16.0008 88.2488 16.3158 88.4788 16.7458L90.2488 20.0008H88.1338L86.3038 16.6258C86.1838 16.4058 86.0488 16.2358 85.8988 16.1158C85.7488 15.9858 85.5788 15.8958 85.3888 15.8458C85.1988 15.7958 84.9788 15.7708 84.7288 15.7708H83.3038V20.0008H81.3838ZM83.3038 14.3458H85.6438C86.3338 14.3458 86.8538 14.2058 87.2038 13.9258C87.5638 13.6358 87.7438 13.2058 87.7438 12.6358C87.7438 12.0758 87.5638 11.6558 87.2038 11.3758C86.8538 11.0858 86.3338 10.9408 85.6438 10.9408H83.3038V14.3458Z" fill="black"/>
<path d="M69.0811 20.0008L73.8661 9.42578H75.4411L80.2261 20.0008H78.2761L77.0011 17.0308L77.8111 17.5558H71.4811L72.2911 17.0308L71.0311 20.0008H69.0811ZM74.6311 11.5108L72.5311 16.5058L72.1411 16.0258H77.1511L76.7761 16.5058L74.6611 11.5108H74.6311Z" fill="black"/>
<path d="M57.2285 20.0008V9.42578H58.8335L62.8235 16.7908H62.3435L66.3185 9.42578H67.8935V20.0008H66.1535V12.2758H66.4835L63.1235 18.3958H61.9985L58.6085 12.2608H58.9685V20.0008H57.2285Z" fill="black"/>
<path d="M48.7764 20.0008V9.42578H50.6964V18.3658H55.7664V20.0008H48.7764Z" fill="black"/>
<path d="M41.7383 20.1504C40.9683 20.1504 40.2683 20.0254 39.6383 19.7754C39.0183 19.5154 38.4833 19.1454 38.0333 18.6654C37.5933 18.1854 37.2533 17.6104 37.0133 16.9404C36.7733 16.2704 36.6533 15.5254 36.6533 14.7054C36.6533 13.8754 36.7733 13.1304 37.0133 12.4704C37.2533 11.8004 37.5933 11.2304 38.0333 10.7604C38.4833 10.2804 39.0183 9.91539 39.6383 9.66539C40.2683 9.40539 40.9683 9.27539 41.7383 9.27539C42.5083 9.27539 43.2033 9.40539 43.8233 9.66539C44.4533 9.91539 44.9883 10.2754 45.4283 10.7454C45.8783 11.2154 46.2233 11.7854 46.4633 12.4554C46.7033 13.1154 46.8233 13.8604 46.8233 14.6904C46.8233 15.5204 46.7033 16.2704 46.4633 16.9404C46.2233 17.6104 45.8783 18.1854 45.4283 18.6654C44.9883 19.1454 44.4533 19.5154 43.8233 19.7754C43.2033 20.0254 42.5083 20.1504 41.7383 20.1504ZM41.7383 18.5004C42.3883 18.5004 42.9383 18.3504 43.3883 18.0504C43.8483 17.7504 44.1983 17.3154 44.4383 16.7454C44.6883 16.1754 44.8133 15.4954 44.8133 14.7054C44.8133 13.9054 44.6933 13.2254 44.4533 12.6654C44.2133 12.0954 43.8633 11.6654 43.4033 11.3754C42.9433 11.0754 42.3883 10.9254 41.7383 10.9254C41.0983 10.9254 40.5483 11.0754 40.0883 11.3754C39.6283 11.6654 39.2733 12.0954 39.0233 12.6654C38.7833 13.2254 38.6633 13.9054 38.6633 14.7054C38.6633 15.4954 38.7833 16.1754 39.0233 16.7454C39.2733 17.3154 39.6283 17.7504 40.0883 18.0504C40.5483 18.3504 41.0983 18.5004 41.7383 18.5004Z" fill="black"/>
<path d="M32.0746 20.1504C30.9746 20.1504 30.0296 19.9304 29.2396 19.4904C28.4596 19.0404 27.8596 18.4104 27.4396 17.6004C27.0196 16.7804 26.8096 15.8154 26.8096 14.7054C26.8096 13.5954 27.0196 12.6354 27.4396 11.8254C27.8596 11.0154 28.4596 10.3904 29.2396 9.95039C30.0296 9.50039 30.9746 9.27539 32.0746 9.27539C32.7846 9.27539 33.4546 9.38539 34.0846 9.60539C34.7246 9.82539 35.2496 10.1404 35.6596 10.5504L35.0296 12.0804C34.5796 11.7004 34.1196 11.4254 33.6496 11.2554C33.1796 11.0754 32.6746 10.9854 32.1346 10.9854C31.0646 10.9854 30.2496 11.3104 29.6896 11.9604C29.1296 12.6004 28.8496 13.5154 28.8496 14.7054C28.8496 15.8954 29.1296 16.8154 29.6896 17.4654C30.2496 18.1154 31.0646 18.4404 32.1346 18.4404C32.6746 18.4404 33.1796 18.3554 33.6496 18.1854C34.1196 18.0054 34.5796 17.7254 35.0296 17.3454L35.6596 18.8754C35.2496 19.2754 34.7246 19.5904 34.0846 19.8204C33.4546 20.0404 32.7846 20.1504 32.0746 20.1504Z" fill="black"/>
<defs>
<filter id="filter0_d_290_18981" x="-2.80957" y="-1" width="26.8193" height="32" filterUnits="userSpaceOnUse" color-interpolation-filters="sRGB">
<feFlood flood-opacity="0" result="BackgroundImageFix"/>
<feColorMatrix in="SourceAlpha" type="matrix" values="0 0 0 0 0 0 0 0 0 0 0 0 0 0 0 0 0 0 127 0" result="hardAlpha"/>
<feOffset dy="2"/>
<feGaussianBlur stdDeviation="2"/>
<feColorMatrix type="matrix" values="0 0 0 0 0 0 0 0 0 0 0 0 0 0 0 0 0 0 0.05 0"/>
<feBlend mode="normal" in2="BackgroundImageFix" result="effect1_dropShadow_290_18981"/>
<feBlend mode="normal" in="SourceGraphic" in2="effect1_dropShadow_290_18981" result="shape"/>
</filter>
<clipPath id="clip0_290_18981">
<rect width="24" height="26" fill="white"/>
</clipPath>
</defs>
</svg>
